#define cursor_width 48
#define cursor_height 48
static char cursor_bits[] = {
0x03,0x00,0x00,0x00,0x00,0x00
0x03,0x00,0x00,0x00,0x00,0x00
0x0f,0x00,0x00,0x00,0x00,0x00
0x0f,0x00,0x00,0x00,0x00,0x00
0x33,0x00,0x00,0x00,0x00,0x00
0x33,0x00,0x00,0x00,0x00,0x00
0xc3,0x00,0x00,0x00,0x00,0x00
0xc3,0x00,0x00,0x00,0x00,0x00
0x03,0x03,0x00,0x00,0x00,0x00
0x03,0x03,0x00,0x00,0x00,0x00
0x03,0x0c,0x00,0x00,0x00,0x00
0x03,0x0c,0x00,0x00,0x00,0x00
0x03,0x30,0x00,0x00,0x00,0x00
0x03,0x30,0x00,0x00,0x00,0x00
0x03,0xc0,0x00,0x00,0x00,0x00
0x03,0xc0,0x00,0x00,0x00,0x00
0x03,0x00,0x03,0x00,0x00,0x00
0x03,0x00,0x03,0x00,0x00,0x00
0x03,0x00,0x0c,0x00,0x00,0x00
0x03,0x00,0x0c,0x00,0x00,0x00
0x03,0x00,0x30,0x00,0x00,0x00
0x03,0x00,0x30,0x00,0x00,0x00
0x03,0x00,0xc0,0x00,0x00,0x00
0x03,0x00,0xc0,0x00,0x00,0x00
0x03,0xc0,0xff,0x00,0x00,0x00
0x03,0xc0,0xff,0x00,0x00,0x00
0x03,0xc3,0x00,0x00,0x00,0x00
0x03,0xc3,0x00,0x00,0x00,0x00
0xc3,0x0c,0x03,0x00,0x00,0x00
0xc3,0x0c,0x03,0x00,0x00,0x00
0x33,0x0c,0x03,0x00,0x00,0x00
0x33,0x0c,0x03,0x00,0x00,0x00
0x0f,0x30,0x0c,0x00,0x00,0x00
0x0f,0x30,0x0c,0x00,0x00,0x00
0x00,0x30,0x0c,0x00,0x00,0x00
0x00,0x30,0x0c,0x00,0x00,0x00
0x00,0xc0,0x03,0x00,0x00,0x00
0x00,0xc0,0x03,0x00,0x00,0x00
0x00,0x00,0x00,0x00,0x00,0x00
0x00,0x00,0x00,0x00,0x00,0x00
0x00,0x00,0x00,0x00,0x00,0x00
0x00,0x00,0x00,0x00,0x00,0x00
0x00,0x00,0x00,0x00,0x00,0x00
0x00,0x00,0x00,0x00,0x00,0x00
0x00,0x00,0x00,0x00,0x00,0x00
0x00,0x00,0x00,0x00,0x00,0x00
0x00,0x00,0x00,0x00,0x00,0x00
0x00,0x00,0x00,0x00,0x00,0x00
};