#define cursor_width 48
#define cursor_height 48
static char cursor_bits[] = {
0x00,0x00,0x00,0x00,0x00,0x00
0x00,0x00,0x00,0x00,0x00,0x00
0x00,0xfc,0x00,0x00,0x00,0x3f
0x00,0xfc,0x00,0x00,0x00,0x3f
0x00,0xf0,0x03,0x00,0x00,0x3f
0x00,0xf0,0x03,0x00,0x00,0x3f
0x0c,0xc0,0x0f,0x00,0xc0,0x3f
0x0c,0xc0,0x0f,0x00,0xc0,0x3f
0x3c,0x00,0x3f,0x00,0xf0,0x03
0x3c,0x00,0x3f,0x00,0xf0,0x03
0xfc,0x00,0xfc,0x00,0xfc,0x00
0xfc,0x00,0xfc,0x00,0xfc,0x00
0xf0,0x03,0xf0,0x03,0x3f,0x00
0xf0,0x03,0xf0,0x03,0x3f,0x00
0xc0,0x0f,0xc0,0xcf,0x0f,0x00
0xc0,0x0f,0xc0,0xcf,0x0f,0x00
0x00,0x3f,0x00,0xff,0x03,0x00
0x00,0x3f,0x00,0xff,0x03,0x00
0x00,0xfc,0x00,0xfc,0x00,0x00
0x00,0xfc,0x00,0xfc,0x00,0x00
0x00,0xf0,0x03,0xf0,0x03,0x00
0x00,0xf0,0x03,0xf0,0x03,0x00
0x00,0xc0,0x0f,0xc0,0x0f,0x00
0x00,0xc0,0x0f,0xc0,0x0f,0x00
0x00,0x00,0x3f,0x00,0x3f,0x00
0x00,0x00,0x3f,0x00,0x3f,0x00
0x00,0x00,0xfc,0x00,0xfc,0x00
0x00,0x00,0xfc,0x00,0xfc,0x00
0x00,0x00,0xff,0x03,0xf0,0x03
0x00,0x00,0xff,0x03,0xf0,0x03
0x00,0xc0,0xcf,0x0f,0xc0,0x0f
0x00,0xc0,0xcf,0x0f,0xc0,0x0f
0x00,0xf0,0x03,0x3f,0x00,0x3f
0x00,0xf0,0x03,0x3f,0x00,0x3f
0x00,0xfc,0x00,0xfc,0x00,0x3c
0x00,0xfc,0x00,0xfc,0x00,0x3c
0x00,0x3f,0x00,0xf0,0x03,0x30
0x00,0x3f,0x00,0xf0,0x03,0x30
0xc0,0x0f,0x00,0xc0,0x0f,0x00
0xc0,0x0f,0x00,0xc0,0x0f,0x00
0xfc,0x03,0x00,0x00,0x3f,0x00
0xfc,0x03,0x00,0x00,0x3f,0x00
0xfc,0x00,0x00,0x00,0xfc,0x00
0xfc,0x00,0x00,0x00,0xfc,0x00
0xfc,0x00,0x00,0x00,0xf0,0x03
0xfc,0x00,0x00,0x00,0xf0,0x03
0x00,0x00,0x00,0x00,0x00,0x00
0x00,0x00,0x00,0x00,0x00,0x00
};