#define cursor_width 48
#define cursor_height 48
static char cursor_bits[] = {
0x00,0x00,0x3c,0x3c,0x00,0x00
0x00,0x00,0x3c,0x3c,0x00,0x00
0x00,0x00,0x3f,0xfc,0x00,0x00
0x00,0x00,0x3f,0xfc,0x00,0x00
0x00,0xc0,0x3f,0xfc,0x03,0x00
0x00,0xc0,0x3f,0xfc,0x03,0x00
0x00,0xc0,0x3f,0xfc,0x03,0x00
0x00,0xc0,0x3f,0xfc,0x03,0x00
0x00,0xc0,0x3f,0xfc,0x03,0x00
0x00,0xc0,0x3f,0xfc,0x03,0x00
0x00,0xc0,0x3f,0xfc,0x03,0x00
0x00,0xc0,0x3f,0xfc,0x03,0x00
0x00,0xc0,0x3f,0xfc,0x03,0x00
0x00,0xc0,0x3f,0xfc,0x03,0x00
0x00,0xc0,0x3f,0xfc,0x03,0x00
0x00,0xc0,0x3f,0xfc,0x03,0x00
0xc0,0xc0,0x3f,0xfc,0x03,0x03
0xc0,0xc0,0x3f,0xfc,0x03,0x03
0xf0,0xc0,0x3f,0xfc,0x03,0x0f
0xf0,0xc0,0x3f,0xfc,0x03,0x0f
0xfc,0xff,0x3f,0xfc,0xff,0x3f
0xfc,0xff,0x3f,0xfc,0xff,0x3f
0xff,0xff,0x3f,0xfc,0xff,0xff
0xff,0xff,0x3f,0xfc,0xff,0xff
0xff,0xff,0x3f,0xfc,0xff,0xff
0xff,0xff,0x3f,0xfc,0xff,0xff
0xfc,0xff,0x3f,0xfc,0xff,0x3f
0xfc,0xff,0x3f,0xfc,0xff,0x3f
0xf0,0xc0,0x3f,0xfc,0x03,0x0f
0xf0,0xc0,0x3f,0xfc,0x03,0x0f
0xc0,0xc0,0x3f,0xfc,0x03,0x03
0xc0,0xc0,0x3f,0xfc,0x03,0x03
0x00,0xc0,0x3f,0xfc,0x03,0x00
0x00,0xc0,0x3f,0xfc,0x03,0x00
0x00,0xc0,0x3f,0xfc,0x03,0x00
0x00,0xc0,0x3f,0xfc,0x03,0x00
0x00,0xc0,0x3f,0xfc,0x03,0x00
0x00,0xc0,0x3f,0xfc,0x03,0x00
0x00,0xc0,0x3f,0xfc,0x03,0x00
0x00,0xc0,0x3f,0xfc,0x03,0x00
0x00,0xc0,0x3f,0xfc,0x03,0x00
0x00,0xc0,0x3f,0xfc,0x03,0x00
0x00,0xc0,0x3f,0xfc,0x03,0x00
0x00,0xc0,0x3f,0xfc,0x03,0x00
0x00,0x00,0x3f,0xfc,0x00,0x00
0x00,0x00,0x3f,0xfc,0x00,0x00
0x00,0x00,0x3c,0x3c,0x00,0x00
0x00,0x00,0x3c,0x3c,0x00,0x00
};